<?xml version="1.0" encoding="UTF-8" standalone="no"?>
<svg
   width="1.93333in"
   height="1.4in"
   viewBox="0 0 580 420"
   version="1.1"
   id="svg3"
   xmlns="http://www.w3.org/2000/svg"
   xmlns:svg="http://www.w3.org/2000/svg">
  <defs
     id="defs7" />
  <path
     style="fill:#272a33;fill-opacity:1"
     d="m 166.59361,51.09063 c -0.0349,-0.139035 -0.0696,-1.187192 -0.0771,-2.329238 -0.0158,-2.407047 0.0329,-2.619514 0.67519,-2.94718 0.5161,-0.263295 1.60224,-0.333788 3.60238,-0.233801 l 1.46931,0.07345 v 2.84478 2.84478 h -2.80319 -2.8032 z"
     id="path5321"
     transform="matrix(3.1250053,0,0,3.1250053,0,-3.4611859e-4)" />
  <path
     style="fill:#272a33;fill-opacity:1"
     d="m 33.561066,30.268558 c -2.884104,-0.762001 -4.980357,-2.95956 -5.670002,-5.944014 -0.523698,-2.266316 0.0601,-4.757343 1.562377,-6.666595 0.833406,-1.059178 2.156579,-1.901522 3.743419,-2.383096 0.666462,-0.202257 0.879564,-0.218624 2.20401,-0.169273 1.665616,0.06206 2.47382,0.248389 3.696451,0.852188 1.607428,0.793832 2.951523,2.348894 3.632479,4.202625 0.293395,0.798691 0.327137,1.01072 0.374025,2.350327 0.04901,1.400261 0.03806,1.515667 -0.223389,2.354284 -0.826946,2.652494 -2.431097,4.321629 -5.05937,5.264323 -0.716012,0.256815 -3.473807,0.346949 -4.26,0.139231 z"
     id="path6118"
     transform="matrix(3.1250053,0,0,3.1250053,0,-3.4611859e-4)" />
  <path
     style="fill:#272a33;fill-opacity:1"
     d="M 34.963618,66.074824 C 34.661985,65.95006 34.345082,65.568995 34.125609,65.067147 33.847849,64.432021 32.77633,58.996399 31.758226,53.057837 30.625842,46.452691 29.884729,43.585881 28.697286,41.217368 28.225572,40.276471 27.618032,39.458951 23.501261,34.225475 21.6968,31.931541 19.830313,29.536243 19.353512,28.90259 c -0.985673,-1.309926 -1.724338,-2.690087 -1.886284,-3.524431 -0.110371,-0.568633 -0.03713,-2.085777 0.100691,-2.085777 0.133378,0 1.611149,0.879881 2.286601,1.361467 0.375567,0.267773 1.471784,1.118658 2.436039,1.890856 3.838779,3.074185 6.320413,4.570579 9.13586,5.508807 3.136462,1.045205 5.252503,0.996205 8.446131,-0.195582 2.815802,-1.050791 5.038721,-2.4388 9.066497,-5.661192 2.647079,-2.117776 3.242991,-2.458406 4.16681,-2.381796 0.297839,0.0247 0.573988,0.07737 0.613666,0.117047 0.118287,0.118287 -0.476505,1.726983 -1.079965,2.920911 -1.042286,2.062128 -2.354248,3.868494 -5.308712,7.30926 -2.193657,2.554731 -3.16273,3.778444 -4.114661,5.195856 -1.993735,2.968647 -2.528348,4.729291 -4.003861,13.185966 -1.340916,7.685245 -2.230005,11.898247 -2.712624,12.853936 -0.313094,0.619995 -0.971848,0.910289 -1.536082,0.676906 z"
     id="path8298"
     transform="matrix(3.1250053,0,0,3.1250053,0,-3.4611859e-4)" />
  <path
     style="fill:#272a33;fill-opacity:1"
     d="m 129.68845,60.001255 c -1.43873,-0.262299 -2.93917,-0.844467 -3.95384,-1.53409 -0.9351,-0.635537 -1.96656,-1.943337 -2.3674,-3.00166 -0.19573,-0.516772 -0.62111,-2.324906 -0.56108,-2.384937 0.014,-0.01399 1.28592,0.009 2.8265,0.0511 2.02909,0.05544 2.87009,0.113633 3.05152,0.211136 0.13775,0.07403 0.52004,0.382987 0.84954,0.686573 0.3295,0.303587 0.89303,0.69127 1.25228,0.861521 0.601,0.284814 0.73724,0.309546 1.7051,0.309546 1.00168,0 1.0878,-0.01722 1.80329,-0.360496 1.17339,-0.562977 1.83566,-1.321177 2.10167,-2.406099 0.1396,-0.569332 0.4005,-2.728783 0.33735,-2.792127 -0.0536,-0.05375 -0.38481,0.126131 -1.59608,0.86682 -0.44553,0.272444 -1.09983,0.590479 -1.454,0.706744 -1.39086,0.456585 -4.16406,0.545094 -5.67522,0.181129 -2.37824,-0.572805 -4.39188,-2.643787 -5.26289,-5.412741 -0.44347,-1.409828 -0.52146,-2.193004 -0.51872,-5.209479 0.003,-3.035058 0.10441,-3.960435 0.61632,-5.610208 0.9263,-2.985228 3.47588,-4.974328 7.18607,-5.606339 1.24593,-0.212238 3.5989,-0.217537 4.77103,-0.01074 4.02706,0.710476 6.61623,2.944624 7.32239,6.318359 0.27674,1.322155 0.38227,3.826858 0.382,9.066497 -3e-4,5.786674 -0.11044,8.46426 -0.39356,9.567408 -0.7916,3.084356 -3.25852,5.024344 -7.06168,5.553316 -1.07118,0.148987 -4.43893,0.116805 -5.36059,-0.05123 z m 4.23613,-13.794684 c 1.15395,-0.53006 2.20653,-1.990712 2.46602,-3.422088 0.15349,-0.846662 0.13007,-4.150234 -0.036,-5.081529 -0.23009,-1.290113 -0.86334,-2.284323 -1.80977,-2.841377 -0.90372,-0.531917 -2.91596,-0.587635 -3.89652,-0.107893 -1.01771,0.497921 -1.8131,1.53526 -2.2734,2.964947 -0.26273,0.816052 -0.37454,3.241412 -0.2068,4.485839 0.20868,1.548206 0.96653,2.920655 2.01862,3.655673 0.76132,0.531885 1.2844,0.677818 2.30436,0.642898 0.66837,-0.02288 0.97675,-0.08666 1.43351,-0.29647 z"
     id="path9026"
     transform="matrix(3.1250053,0,0,3.1250053,0,-3.4611859e-4)" />
  <path
     style="fill:#272a33;fill-opacity:1"
     d="m 152.17185,51.703856 c -4.10487,-0.780062 -6.48066,-3.177898 -7.42493,-7.493806 -0.15223,-0.695759 -0.1812,-1.287972 -0.17788,-3.636224 0.004,-2.511717 0.0272,-2.912333 0.22596,-3.830336 0.99367,-4.589186 3.35475,-6.869938 7.71219,-7.449805 1.2719,-0.169259 4.08792,-0.06573 4.97937,0.183068 3.40571,0.950512 5.31379,2.84555 6.30021,6.257169 0.69379,2.399533 0.77926,5.798422 0.21343,8.488055 -0.68317,3.247454 -2.19453,5.405441 -4.61018,6.582647 -1.49302,0.727585 -2.5796,0.958096 -4.70857,0.998898 -1.22499,0.02348 -2.02979,-0.0085 -2.5096,-0.09967 z m 3.58629,-5.448209 c 0.62735,-0.277508 1.39061,-1.056385 1.7682,-1.804379 0.5394,-1.068547 0.72414,-1.914908 0.78387,-3.591263 0.10602,-2.974944 -0.41131,-4.645956 -1.75577,-5.671251 -0.70015,-0.533942 -1.22003,-0.696072 -2.27372,-0.709086 -0.82806,-0.01023 -0.95167,0.01478 -1.51472,0.306393 -0.33719,0.174642 -0.82366,0.528112 -1.08104,0.785491 -0.97663,0.976633 -1.15691,1.7251 -1.15933,4.813281 -0.002,2.497729 0.0639,2.996409 0.51749,3.917772 0.43594,0.885512 1.06266,1.553863 1.8141,1.934605 0.59003,0.298958 0.66851,0.312929 1.52496,0.271433 0.62,-0.03004 1.05113,-0.10931 1.37596,-0.252996 z"
     id="path9028"
     transform="matrix(3.1250053,0,0,3.1250053,0,-3.4611859e-4)" />
  <path
     style="fill:#272a33;fill-opacity:1"
     d="m 168.85725,43.832234 c -0.76473,-0.106969 -1.30784,-0.486651 -1.43659,-1.004306 -0.12004,-0.482596 -0.68002,-14.493944 -0.64864,-16.229531 0.0367,-2.027937 0.10103,-2.230521 0.86198,-2.7131 0.675,-0.428076 1.11697,-0.520651 2.52561,-0.529026 1.35464,-0.0081 1.77423,0.108534 2.01593,0.56014 0.16613,0.310426 0.0522,5.236761 -0.20567,8.893288 -0.291,4.126279 -0.40632,6.528341 -0.40706,8.478792 l -6.4e-4,1.716487 -0.39821,0.359753 c -0.21901,0.197864 -0.50077,0.380545 -0.62614,0.405959 -0.46482,0.09423 -1.24314,0.122733 -1.68057,0.06154 z"
     id="path9030"
     transform="matrix(3.1250053,0,0,3.1250053,0,-3.4611859e-4)" />
  <path
     style="fill:#5eb705;fill-opacity:1"
     d="m 102.58965,51.38406 c -0.51021,-0.186779 -0.91738,-0.579148 -1.07293,-1.03394 -0.0922,-0.2694 -0.11928,-1.811297 -0.10857,-6.169731 0.0147,-5.986266 0.0822,-7.284514 0.47642,-9.16668 0.54899,-2.620986 2.83519,-4.968422 5.43201,-5.577507 0.66499,-0.155973 1.22361,-0.182776 3.78558,-0.18163 3.40425,0.0015 3.75202,0.0477 5.05545,0.671299 0.69051,0.33036 1.00734,0.565792 1.70779,1.269035 1.3624,1.367819 2.11621,2.789551 2.3966,4.520079 0.0665,0.410579 0.10578,3.206721 0.10626,7.567581 l 8e-4,6.916396 -0.22541,0.441138 c -0.39072,0.764658 -0.60314,0.854319 -2.01118,0.848911 -1.02811,-0.0039 -1.3041,-0.03983 -1.75706,-0.228443 -0.8562,-0.356506 -1.34544,-0.747857 -1.6689,-1.334925 l -0.29519,-0.535775 -0.0768,-3.255925 c -0.21289,-9.024238 -0.22238,-9.23286 -0.4419,-9.717682 -0.30195,-0.666878 -0.67761,-1.058221 -1.31737,-1.372388 -0.50417,-0.247577 -0.68352,-0.280619 -1.52318,-0.280619 -0.76648,0 -1.04373,0.0425 -1.42432,0.218324 -0.674,0.311376 -1.41729,1.044557 -1.68666,1.663724 -0.22448,0.515974 -0.22828,0.596039 -0.31214,6.583355 -0.0467,3.333566 -0.12509,6.413136 -0.17421,6.84349 -0.10543,0.923683 -0.24088,1.113116 -0.94549,1.322364 -0.68478,0.203359 -3.35501,0.196239 -3.9196,-0.01045 z"
     id="path9827"
     transform="matrix(3.1250053,0,0,3.1250053,0,-3.4611859e-4)" />
  <path
     style="fill:#5eb705;fill-opacity:1"
     d="m 94.138173,51.402243 c -0.498624,-0.163945 -0.770188,-0.383246 -1.002979,-0.809951 -0.147981,-0.271251 -0.160859,-0.900813 -0.131159,-6.411903 0.01811,-3.361116 0.06751,-7.856009 0.109767,-9.988651 0.08684,-4.382728 0.0606,-4.245828 0.883626,-4.60989 0.408827,-0.180844 0.601347,-0.197766 1.719695,-0.151163 1.485226,0.06189 2.074561,0.237043 2.614575,0.777058 0.207168,0.207168 0.477848,0.637854 0.604913,0.962493 l 0.229969,0.587549 0.0714,9.717682 c 0.03927,5.344725 0.05545,9.734679 0.03596,9.755454 -0.11848,0.12626 -1.136105,0.222725 -2.798399,0.26527 -1.481951,0.03793 -1.99955,0.01713 -2.33737,-0.09395 z"
     id="path9829"
     transform="matrix(3.1250053,0,0,3.1250053,0,-3.4611859e-4)" />
  <path
     style="fill:#5eb705;fill-opacity:1"
     d="M 94.230566,28.099069 C 93.987633,28.04786 93.684638,27.90804 93.557243,27.788359 93.1828,27.436588 93.144835,27.245485 92.852943,24.24312 l -0.05853,-0.602087 0.488106,-0.140516 c 0.636368,-0.183198 3.358455,-0.26573 3.905545,-0.118414 1.237512,0.333227 2.19977,1.918499 1.99468,3.286135 -0.08317,0.554602 -0.616168,1.181094 -1.139189,1.33901 -0.479086,0.14465 -3.246246,0.211286 -3.812984,0.09182 z"
     id="path9831"
     transform="matrix(3.1250053,0,0,3.1250053,0,-3.4611859e-4)" />
  <path
     style="fill:#5eb705;fill-opacity:1"
     d="m 72.656255,51.400595 c -0.207149,-0.07392 -0.446802,-0.192632 -0.532563,-0.263808 -0.438181,-0.363657 -0.427849,-0.130689 -0.493277,-11.122182 -0.03425,-5.753457 -0.02506,-11.297168 0.02042,-12.319358 0.08073,-1.814492 0.09035,-1.874084 0.405905,-2.515076 0.381036,-0.773993 1.12958,-1.520456 1.68924,-1.684545 0.213904,-0.06272 0.9299,-0.138916 1.591103,-0.169336 1.01908,-0.04689 1.276893,-0.02698 1.692663,0.13071 0.95986,0.364041 0.873511,-0.685217 0.894027,10.86365 0.0177,9.963284 0.02193,10.166882 0.218414,10.500452 0.110201,0.187091 0.325713,0.433598 0.478916,0.547794 0.267468,0.199368 0.446862,0.210594 4.508203,0.282121 7.398806,0.130303 7.102718,0.118094 7.45172,0.307259 0.212733,0.115304 0.418393,0.375041 0.62614,0.79078 0.293245,0.586836 0.309356,0.680656 0.309356,1.801505 0,1.351186 -0.192451,2.054921 -0.693145,2.534615 -0.238959,0.228938 -0.424969,0.29502 -1.02658,0.364706 -0.404107,0.04681 -4.341303,0.08511 -8.749324,0.08511 -6.449343,2e-6 -8.088139,-0.02625 -8.391215,-0.134395 z"
     id="path9833"
     transform="matrix(3.1250053,0,0,3.1250053,0,-3.4611859e-4)" />
  <path
     style="fill:#5eb705;fill-opacity:1"
     d="m 36.836276,72.657204 c 0.02974,-0.411018 0.05916,-0.444872 0.848897,-0.976777 2.632602,-1.773117 5.136862,-4.31035 6.872182,-6.962669 1.228238,-1.877278 2.293003,-4.388119 2.782703,-6.56194 0.212956,-0.945328 0.213563,-0.984089 0.0903,-5.760482 -0.06825,-2.644812 -0.0997,-5.146865 -0.06988,-5.560117 0.15958,-2.211462 1.413024,-3.353611 2.866585,-2.612058 1.404426,0.716484 2.515519,3.436938 3.126926,7.656117 0.08242,0.568754 0.178381,0.90565 0.267736,0.939939 0.219027,0.08405 0.814131,-0.561885 1.175063,-1.27543 0.181162,-0.358152 0.480971,-1.102005 0.66624,-1.653008 0.330564,-0.983121 0.336798,-1.033617 0.333959,-2.704922 -0.0029,-1.691153 -0.0054,-1.710477 -0.36407,-2.755013 -0.198646,-0.578552 -0.799017,-1.998636 -1.334156,-3.155742 -1.436486,-3.106041 -1.493919,-3.281938 -1.462682,-4.479671 0.01167,-0.447618 0.446475,-0.992541 1.029145,-1.289797 0.212972,-0.10865 0.800855,-0.252511 1.306405,-0.31969 l 0.919182,-0.122143 0.114571,-0.651185 c 0.21476,-1.220623 0.356855,-1.379956 1.480909,-1.660538 0.375616,-0.09376 0.750428,-0.237962 0.832914,-0.320449 0.08249,-0.08249 0.361231,-0.593996 0.619431,-1.136687 0.26494,-0.556857 0.5311,-0.987383 0.610957,-0.988255 0.246244,-0.0027 1.094936,0.602583 1.54175,1.099547 0.845591,0.940501 1.3835,2.314399 1.733167,4.426756 0.140012,0.845824 0.178967,1.935769 0.213968,5.986711 0.06172,7.143568 -0.03728,8.176027 -1.095488,11.424353 -1.436593,4.409839 -2.938804,7.519458 -4.775723,9.885876 -2.945807,3.79495 -6.711658,6.380419 -11.933189,8.192807 -3.693096,1.281869 -5.747401,1.760242 -7.559116,1.760242 H 36.80547 Z"
     id="path9835"
     transform="matrix(3.1250053,0,0,3.1250053,0,-3.4611859e-4)" />
  <path
     style="fill:#5eb705;fill-opacity:1"
     d="M 31.250795,73.084565 C 29.212132,72.676057 25.895034,71.588484 23.242291,70.458827 18.348117,68.374668 15.048575,65.559703 12.309482,61.13163 9.8512779,57.15765 8.2441986,52.377893 7.7591286,47.59802 7.589755,45.929015 7.6901686,39.58753 7.9107153,38.024765 c 0.251172,-1.779771 0.6424211,-3.670767 0.9731145,-4.703284 0.2472944,-0.772121 0.3844591,-1.029724 0.764806,-1.436345 0.9937972,-1.06245 1.4307872,-1.036848 2.7137502,0.158987 0.363721,0.33902 0.943638,0.794683 1.288704,1.012584 0.628119,0.396644 1.023652,0.940687 1.026983,1.412584 0.0041,0.574801 0.05874,0.611837 1.073636,0.727122 1.171418,0.133065 1.916212,0.460036 2.239529,0.983174 0.191654,0.310103 0.212497,0.451356 0.16559,1.122219 -0.0631,0.902433 -0.262612,1.436929 -1.572286,4.212119 -1.078319,2.284953 -1.35726,3.06856 -1.501004,4.216661 -0.329086,2.628445 0.09729,4.688936 1.308224,6.322127 0.323567,0.436394 0.656113,0.793444 0.738993,0.793444 0.08288,0 0.15069,-0.02184 0.15069,-0.04854 0,-0.221648 0.680563,-3.37463 0.951794,-4.409568 0.560738,-2.139607 0.99169,-3.030865 1.815099,-3.753829 0.995425,-0.873994 2.150805,-0.766622 2.83298,0.263275 0.498652,0.752827 0.54845,1.245054 0.449414,4.442285 -0.128909,4.161622 -0.106707,7.723926 0.05338,8.565586 0.220439,1.158941 0.977839,3.330039 1.607663,4.608385 1.522299,3.089798 3.24399,5.245943 5.864365,7.344189 0.661204,0.529454 1.445827,1.189921 1.743608,1.467703 0.545976,0.509311 1.311952,1.573638 1.311952,1.822963 0,0.198346 -1.535953,0.161383 -2.660909,-0.06404 z"
     id="path9837"
     transform="matrix(3.1250053,0,0,3.1250053,0,-3.4611859e-4)" />
</svg>
